<?xml version="1.0" encoding="UTF-8" standalone="no"?>
<!-- Created with Inkscape (http://www.inkscape.org/) -->

<svg
   xmlns:dc="http://purl.org/dc/elements/1.1/"
   xmlns:cc="http://creativecommons.org/ns#"
   xmlns:rdf="http://www.w3.org/1999/02/22-rdf-syntax-ns#"
   xmlns:svg="http://www.w3.org/2000/svg"
   xmlns="http://www.w3.org/2000/svg"
   xmlns:sodipodi="http://sodipodi.sourceforge.net/DTD/sodipodi-0.dtd"
   xmlns:inkscape="http://www.inkscape.org/namespaces/inkscape"
   width="128"
   height="128"
   viewBox="0 0 33.866666 33.866668"
   version="1.1"
   id="svg8"
   inkscape:version="0.92.1 r"
   sodipodi:docname="logo.svg">
  <defs
     id="defs2" />
  <sodipodi:namedview
     id="base"
     pagecolor="#ffffff"
     bordercolor="#666666"
     borderopacity="1.0"
     inkscape:pageopacity="0.0"
     inkscape:pageshadow="2"
     inkscape:zoom="3.959798"
     inkscape:cx="117.83527"
     inkscape:cy="40.926848"
     inkscape:document-units="px"
     inkscape:current-layer="layer1"
     showgrid="false"
     inkscape:window-width="1920"
     inkscape:window-height="1029"
     inkscape:window-x="0"
     inkscape:window-y="30"
     inkscape:window-maximized="1"
     units="px" />
  <metadata
     id="metadata5">
    <rdf:RDF>
      <cc:Work
         rdf:about="">
        <dc:format>image/svg+xml</dc:format>
        <dc:type
           rdf:resource="http://purl.org/dc/dcmitype/StillImage" />
        <dc:title></dc:title>
      </cc:Work>
    </rdf:RDF>
  </metadata>
  <g
     inkscape:label="Calque 1"
     inkscape:groupmode="layer"
     id="layer1"
     transform="translate(0,-263.13332)">
    <path
       style="fill:#0d4800;fill-opacity:1;fill-rule:evenodd;stroke:none;stroke-width:0.060794px;stroke-linecap:butt;stroke-linejoin:miter;stroke-opacity:1"
       d="m 22.306355,266.29633 c 2.429221,-1.10772 6.93892,2.79252 5.691898,4.3161 2.606508,-0.67072 3.018699,13.32528 -1.166758,11.56815 -1.817162,7.42922 -7.141262,8.43298 -8.325048,1.25212 -1.506708,4.32249 -7.915185,3.61617 -7.577354,-1.38704 -3.5183997,1.58943 -7.9943979,-4.94948 -5.028416,-7.43074 -4.1507492,-1.85172 2.4218053,-9.53638 4.782665,-8.00635 0.788829,-4.72898 12.333687,-3.86279 11.623013,-0.31224 z"
       id="path4485"
       inkscape:connector-curvature="0"
       sodipodi:nodetypes="cccccccc" />
    <path
       style="fill:#f898b6;fill-opacity:1;fill-rule:evenodd;stroke:#000000;stroke-width:0.06517021px;stroke-linecap:butt;stroke-linejoin:miter;stroke-opacity:1"
       d="m 2.6611217,297.96597 c 2.8466082,-4.9278 10.1883233,-5.41192 8.8695803,-11.67873 5.518494,-0.42045 4.532627,-0.89581 9.708404,0.79659 0.351471,4.5321 3.02039,6.53828 10.630593,11.68976 -4.92792,0.52506 -22.4778597,0.0163 -29.2085773,-0.80762 z"
       id="path4506"
       inkscape:connector-curvature="0"
       sodipodi:nodetypes="ccccc" />
    <path
       style="fill:#f898b6;fill-opacity:1;fill-rule:evenodd;stroke:#000000;stroke-width:0.06517021px;stroke-linecap:butt;stroke-linejoin:miter;stroke-opacity:1"
       d="m 11.318008,292.27152 c -6.7479151,-0.32084 -6.149739,-20.77084 4.439788,-21.41502 10.589526,-0.64418 10.614594,12.18166 7.655809,14.1417 -1.499997,1.11734 -5.347678,7.59416 -12.095597,7.27332 z"
       id="path4558"
       inkscape:connector-curvature="0"
       sodipodi:nodetypes="zzcz" />
    <path
       style="fill:#ffffff;fill-opacity:1;fill-rule:evenodd;stroke:#000000;stroke-width:0.06517021px;stroke-linecap:butt;stroke-linejoin:miter;stroke-opacity:1"
       d="m 8.8778363,279.03931 c 1.2421827,-0.87976 2.5432987,-1.03318 3.9709577,0.20045 -1.311198,0.10983 -2.788234,0.65549 -3.9709577,-0.20045 z"
       id="path4517"
       inkscape:connector-curvature="0"
       sodipodi:nodetypes="ccc" />
    <path
       sodipodi:nodetypes="ccc"
       inkscape:connector-curvature="0"
       id="path4530"
       d="m 20.530253,279.10915 c -1.242181,-0.87979 -2.543298,-1.03319 -3.970958,0.20044 1.311198,0.10983 2.788234,0.65549 3.970958,-0.20044 z"
       style="fill:#ffffff;fill-opacity:1;fill-rule:evenodd;stroke:#000000;stroke-width:0.06517021px;stroke-linecap:butt;stroke-linejoin:miter;stroke-opacity:1" />
    <path
       style="fill:#ffffff;fill-opacity:1;fill-rule:evenodd;stroke:#000000;stroke-width:0.06517021px;stroke-linecap:butt;stroke-linejoin:miter;stroke-opacity:1"
       d="m 9.1892913,284.76789 c 1.5080037,3.13243 3.7520697,6.61734 9.1854927,0.57393 -2.880163,1.08367 -6.889273,1.30726 -9.1854927,-0.57393 z"
       id="path4532"
       inkscape:connector-curvature="0"
       sodipodi:nodetypes="ccc" />
    <ellipse
       style="fill:#000000;fill-opacity:1;stroke:none;stroke-width:0.06527284;stroke-miterlimit:4;stroke-dasharray:none;stroke-dashoffset:0;stroke-opacity:1"
       id="path4545"
       cx="10.684543"
       cy="278.8956"
       rx="0.41895139"
       ry="0.40731382" />
    <ellipse
       ry="0.40731382"
       rx="0.41895139"
       cy="279.03528"
       cx="18.877373"
       id="ellipse4547"
       style="fill:#000000;fill-opacity:1;stroke:none;stroke-width:0.06527284;stroke-miterlimit:4;stroke-dasharray:none;stroke-dashoffset:0;stroke-opacity:1" />
    <path
       style="fill:none;fill-rule:evenodd;stroke:#000000;stroke-width:0.04959872px;stroke-linecap:butt;stroke-linejoin:miter;stroke-opacity:1"
       d="m 13.908239,280.30745 c -0.231032,0.82697 -0.965641,0.9834 -1.443039,1.47103 -0.482992,0.25727 -0.753439,1.13894 0.05166,1.4007 0.06844,0.70771 0.595938,0.66671 0.595938,0.66671 0.128991,0.0386 0.344323,-0.009 0.459267,-0.14187"
       id="path4549"
       inkscape:connector-curvature="0"
       sodipodi:nodetypes="ccccc" />
    <path
       style="fill:#f898b6;fill-opacity:1;fill-rule:evenodd;stroke:#000000;stroke-width:0.06517021px;stroke-linecap:butt;stroke-linejoin:miter;stroke-opacity:1"
       d="m 23.924811,280.75094 c 0.04949,-1.49395 1.5995,-2.12455 2.095259,-0.7496 0.495761,1.37497 -0.07359,3.74147 -0.596297,4.33377 -0.522709,0.5923 -1.487232,-0.30942 -1.503425,-1.33812 l -0.0044,-0.0693 0.0044,0.0693"
       id="path4573"
       inkscape:connector-curvature="0"
       sodipodi:nodetypes="czzccc" />
    <path
       style="fill:#0d4800;fill-opacity:1;fill-rule:evenodd;stroke:none;stroke-width:0.06517021px;stroke-linecap:butt;stroke-linejoin:miter;stroke-opacity:1"
       d="m 7.8682593,277.60383 c 1.281317,-2.44776 3.1220227,-4.88749 3.5960317,-2.71895 0.414231,-1.92371 2.321422,-2.25658 3.98856,-0.80814 0.574773,-1.05977 2.449409,-2.82657 3.357582,0.88859 1.315264,-0.42338 2.610029,0.7914 3.798838,2.01481 0.594404,0.61169 -0.102341,5.67257 0.558473,5.79514 1.475534,-1.22985 0.578952,-3.08977 1.732369,-3.51461 3.565797,-1.55544 -5.91593,-10.48657 -8.786302,-10.68954 -2.870369,-0.20298 -9.8771844,8.5284 -8.2455517,9.0327 z"
       id="path4585"
       inkscape:connector-curvature="0"
       sodipodi:nodetypes="ccccscczc" />
  </g>
</svg>
